<svg width="173" height="72" viewBox="0 0 173 72" fill="none" xmlns="http://www.w3.org/2000/svg">
<path d="M73.1684 2.02985C73.1849 0.925406 72.3029 0.0167117 71.1985 0.000227357C70.094 -0.0162569 69.1853 0.865711 69.1688 1.97016C69.0448 10.2817 68.118 18.4654 67.0041 26.6914C63.8195 26.8927 60.6118 27.3498 57.4833 28.3533C56.4315 28.6906 55.8524 29.8168 56.1897 30.8685C56.5271 31.9203 57.6532 32.4995 58.705 32.1621C61.226 31.3535 63.8014 30.9428 66.4443 30.7386C66.3069 31.7157 66.1684 32.6937 66.0297 33.673L65.9008 34.5834C64.3627 45.4502 62.8423 56.4762 62.8423 67.794C62.8423 68.8986 63.7377 69.794 64.8423 69.794C65.9468 69.794 66.8423 68.8986 66.8423 67.794C66.8423 56.7984 68.3191 46.0396 69.8613 35.144L70.001 34.1578L70.0016 34.1532C70.1709 32.9582 70.3405 31.7614 70.5083 30.5626C72.0576 30.5374 73.6311 30.548 75.231 30.5587H75.2333C76.1194 30.5647 77.014 30.5707 77.9167 30.5707C79.0213 30.5707 79.9167 29.6752 79.9167 28.5707C79.9167 27.4661 79.0213 26.5707 77.9167 26.5707C77.0639 26.5707 76.1995 26.5638 75.3258 26.5569H75.3247C73.9235 26.5459 72.4984 26.5347 71.0595 26.551C72.1411 18.4886 73.0445 10.3304 73.1684 2.02985Z" fill="#00B0FF"/>
<path d="M10.5724 4.44376C10.5541 4.33483 10.5445 4.22292 10.5445 4.10876C10.5445 3.0042 11.4399 2.10876 12.5445 2.10876C16.721 2.10876 20.9033 2.21496 25.0514 2.32029L25.0528 2.32032C29.209 2.42586 33.3305 2.53052 37.4281 2.53052C38.5327 2.53052 39.4281 3.42595 39.4281 4.53052C39.4281 5.63509 38.5327 6.53052 37.4281 6.53052C33.2797 6.53052 29.1158 6.42479 24.9769 6.31969L24.9498 6.319C21.382 6.2284 17.8325 6.13843 14.2947 6.11477C12.6768 13.3788 11.9017 20.9513 11.1933 28.6794H21.8231C22.9277 28.6794 23.8231 29.5749 23.8231 30.6794C23.8231 31.784 22.9277 32.6794 21.8231 32.6794H10.8298C10.6996 34.1089 10.5671 35.5428 10.4276 36.9801C9.37437 47.8293 7.91938 58.8038 3.85749 68.9586C3.44726 69.9841 2.28332 70.483 1.25775 70.0728C0.232184 69.6625 -0.266648 68.4986 0.143579 67.473C3.97716 57.889 5.3963 47.4098 6.44632 36.5936C6.63276 34.6732 6.80762 32.7396 6.98309 30.7991C7.78231 21.9612 8.59453 12.9796 10.5724 4.44376Z" fill="#00B0FF"/>
<path fill-rule="evenodd" clip-rule="evenodd" d="M46.929 38.1992C46.5019 37.7249 45.8555 37.4628 45.1752 37.5542C40.889 38.1299 34.9749 41.0388 30.4206 44.9565C25.9504 48.8018 22.0257 54.3067 23.3385 60.2145C23.8528 62.5287 24.7962 64.386 26.2082 65.6703C27.6466 66.9786 29.4015 67.5367 31.2116 67.5344C34.6888 67.53 38.4291 65.4818 41.5525 62.7347C43.2389 61.2516 44.8364 59.4868 46.2153 57.5495C46.5233 61.4564 46.8155 65.2709 46.8155 69.0593C46.8155 70.1639 47.711 71.0593 48.8155 71.0593C49.9201 71.0593 50.8155 70.1639 50.8155 69.0593C50.8155 64.9992 50.4951 60.9377 50.1813 56.961L50.1767 56.9024C50.016 54.8654 49.8574 52.8501 49.74 50.8475C51.0415 47.1065 51.3494 43.0312 49.7059 39.3333L49.7018 39.3239C49.6557 39.2191 49.4524 38.757 48.9825 38.4132C48.6725 38.1863 48.1317 37.9328 47.4502 38.0422C47.2542 38.0737 47.0808 38.13 46.929 38.1992ZM45.7 50.2405C45.6087 48.5067 45.5503 46.7641 45.5503 45.0192C45.5503 44.9518 45.5488 44.8218 45.5468 44.6465L45.5468 44.6452L45.5468 44.6439L45.5468 44.6427C45.54 44.0304 45.5271 42.8704 45.5479 41.8841C45.5503 41.7711 45.5532 41.6559 45.5567 41.54C42.2411 42.0374 37.1172 44.4723 33.0291 47.989C28.7942 51.6318 26.4415 55.7389 27.2433 59.3468C27.6368 61.1176 28.2705 62.139 28.8996 62.7112C29.5024 63.2594 30.2527 63.5356 31.2065 63.5344C33.2572 63.5318 36.0796 62.2212 38.9109 59.7311C41.6821 57.2939 44.162 53.9823 45.5814 50.535C45.6219 50.4368 45.6614 50.3386 45.7 50.2405Z" fill="#00B0FF"/>
<path fill-rule="evenodd" clip-rule="evenodd" d="M95.7618 4.34956C95.8247 4.21997 95.8998 4.10023 95.985 3.99106C96.325 3.37194 96.9831 2.95231 97.7393 2.95231C98.8439 2.95231 99.7393 3.84774 99.7393 4.95231C99.7393 14.5029 102.095 24.0689 104.531 33.8846L104.586 34.1073C104.845 35.1509 105.105 36.1974 105.362 37.2466C105.541 37.5462 105.644 37.8966 105.644 38.2711C105.644 38.3104 105.643 38.3494 105.641 38.3881C107.652 46.6774 109.44 55.1239 109.44 63.5765C109.44 64.681 108.544 65.5765 107.44 65.5765C106.335 65.5765 105.44 64.681 105.44 63.5765C105.44 55.8981 103.873 48.1653 101.973 40.2456C100.711 40.2088 99.5005 40.1378 98.3493 40.0703C97.6211 40.0276 96.9166 39.9862 96.2375 39.9558C94.2682 39.8677 92.3724 39.8595 90.3244 40.1118C88.9141 45.8191 87.542 51.3644 86.3658 55.9538C85.6493 58.7497 85.0024 61.2032 84.4615 63.1294C83.9344 65.0071 83.474 66.5104 83.1295 67.3155C82.695 68.331 81.5196 68.802 80.504 68.3675C79.4885 67.933 79.0175 66.7575 79.452 65.742C79.675 65.2208 80.0683 63.9792 80.6104 62.0482C81.139 60.1657 81.7771 57.7467 82.4911 54.9608C83.7209 50.1618 85.1665 44.3111 86.6508 38.3038L86.6519 38.2993L86.6522 38.2982L86.6708 38.2228C86.9031 37.2828 87.1362 36.339 87.3697 35.395C89.1001 28.3968 90.844 21.3825 92.3171 15.7844C93.0534 12.9862 93.7258 10.5277 94.2975 8.59504C94.8518 6.72157 95.3552 5.18662 95.7618 4.34956ZM91.3422 35.9935C93.1222 35.8615 94.788 35.8869 96.4164 35.9598C97.2054 35.9951 97.9678 36.0401 98.7257 36.0847C99.4764 36.1289 100.222 36.1729 100.985 36.207C100.875 35.7611 100.764 35.3145 100.653 34.8673L100.643 34.8254C99.0701 28.4884 97.4639 22.0166 96.5363 15.4765C96.4214 15.9082 96.3043 16.3503 96.1854 16.8023C94.7463 22.2712 93.0439 29.1128 91.3422 35.9935Z" fill="#00B0FF"/>
<path d="M124.862 38.9292C122.645 39.0865 121.408 39.611 120.898 40.3544C120.443 41.0186 120.076 42.3384 119.935 44.4014C119.799 46.3842 119.888 48.7429 120.079 51.2189C120.237 53.2618 120.46 55.3273 120.671 57.2802C120.715 57.6901 120.759 58.095 120.801 58.4937C121.041 60.7453 121.249 62.8632 121.249 64.42C121.249 65.5246 120.353 66.42 119.249 66.42C118.144 66.42 117.249 65.5246 117.249 64.42C117.249 63.1158 117.069 61.2193 116.824 58.9172C116.783 58.5306 116.74 58.1341 116.696 57.7298L116.696 57.7286C116.485 55.7751 116.254 53.6364 116.091 51.5272C115.895 48.985 115.789 46.4002 115.944 44.1285C116.094 41.9369 116.503 39.6909 117.599 38.0923C119.248 35.688 122.26 35.1038 124.579 34.9392C125.821 34.8511 127.076 34.8722 128.189 34.9108C128.572 34.9242 128.929 34.939 129.263 34.9529L129.267 34.9531L129.268 34.9531C129.948 34.9814 130.534 35.0058 131.058 35.0058C132.163 35.0058 133.058 35.9012 133.058 37.0058C133.058 38.1104 132.163 39.0058 131.058 39.0058C130.45 39.0058 129.725 38.9758 128.995 38.9455C128.678 38.9324 128.359 38.9192 128.05 38.9084C126.975 38.8711 125.889 38.8563 124.862 38.9292Z" fill="#00B0FF"/>
<path d="M145.733 36.0428C143.702 35.6466 141.048 35.2503 138.834 35.8817C137.654 36.2179 136.505 36.8695 135.675 38.0245C134.855 39.1657 134.493 40.5948 134.493 42.2234C134.493 44.0676 134.86 45.5864 135.737 46.7632C136.619 47.9476 137.806 48.4982 138.81 48.8307C139.291 48.9901 139.788 49.1169 140.216 49.2264L140.253 49.2358C140.714 49.3534 141.113 49.4564 141.5 49.5825C142.253 49.8283 142.831 50.1243 143.303 50.5966C145.616 52.909 146.518 56.0361 145.562 58.9064C145.521 59.0294 145.302 59.3947 144.378 59.8276C143.5 60.2389 142.296 60.5611 140.909 60.7955C138.149 61.2617 135.107 61.3112 133.541 61.3112C132.436 61.3112 131.541 62.2066 131.541 63.3112C131.541 64.4158 132.436 65.3112 133.541 65.3112C135.146 65.3112 138.467 65.2646 141.575 64.7396C143.121 64.4785 144.727 64.0813 146.075 63.4497C147.377 62.8396 148.801 61.8383 149.356 60.1713C150.867 55.6389 149.337 50.9734 146.132 47.7681C145.049 46.6851 143.821 46.1322 142.74 45.7798C142.217 45.609 141.699 45.4767 141.26 45.3646L141.243 45.3603C140.777 45.2413 140.406 45.1458 140.068 45.0336C139.404 44.8137 139.119 44.607 138.945 44.3737C138.765 44.1328 138.493 43.5734 138.493 42.2234C138.493 41.1732 138.725 40.6357 138.924 40.3586C139.113 40.0954 139.408 39.8772 139.93 39.7285C141.117 39.3901 142.892 39.5638 144.967 39.9688C146.051 40.1803 147.102 39.4729 147.313 38.3888C147.525 37.3047 146.817 36.2543 145.733 36.0428Z" fill="#00B0FF"/>
<path d="M167.727 36.6213C169.34 37.1572 170.877 38.1765 171.742 39.9072C172.536 41.4942 172.972 43.3759 172.689 45.2008C172.395 47.0998 171.325 48.8463 169.332 49.9199C168.405 50.4188 167.376 50.5983 166.452 50.6512C165.515 50.705 164.544 50.6352 163.652 50.5332C162.949 50.4529 162.237 50.3453 161.599 50.2488L161.598 50.2487C161.43 50.2233 161.268 50.1987 161.112 50.1757C160.319 50.0581 159.715 49.9818 159.267 49.9709C158.163 49.944 157.289 49.027 157.316 47.9227C157.343 46.8185 158.26 45.9451 159.365 45.9721C160.092 45.9898 160.926 46.1044 161.698 46.2189C161.879 46.2456 162.058 46.2726 162.236 46.2996C162.864 46.3945 163.482 46.4879 164.106 46.559C164.901 46.6499 165.615 46.6927 166.223 46.6578C166.845 46.6221 167.224 46.5116 167.435 46.398C168.251 45.9589 168.621 45.3356 168.736 44.5885C168.863 43.7674 168.68 42.7267 168.165 41.696C167.904 41.1743 167.383 40.7221 166.466 40.4172C165.533 40.1074 164.322 40.0025 162.999 40.1211C161.687 40.2388 160.372 40.567 159.275 41.0259C158.138 41.5011 157.42 42.0378 157.099 42.4513C155.862 44.0417 155.106 46.8776 155.041 50.0843C154.977 53.2636 155.602 56.3166 156.636 58.1767C156.888 58.6313 157.633 59.3855 158.93 60.2095C160.167 60.9949 161.694 61.7092 163.227 62.1831C164.783 62.6642 166.199 62.8522 167.259 62.7271C168.285 62.606 168.711 62.245 168.914 61.8385C169.408 60.8506 170.61 60.4501 171.598 60.9441C172.586 61.4381 172.986 62.6394 172.492 63.6274C171.488 65.6351 169.582 66.4807 167.728 66.6995C165.907 66.9144 163.892 66.5757 162.045 66.0047C160.175 65.4264 158.324 64.5629 156.786 63.586C155.309 62.6477 153.881 61.4551 153.139 60.1193C151.647 57.4344 150.969 53.6085 151.042 50.0034C151.114 46.4258 151.937 42.5719 153.941 39.9955C154.858 38.8169 156.282 37.9418 157.732 37.3355C159.221 36.7129 160.937 36.29 162.642 36.1371C164.336 35.9852 166.129 36.0903 167.727 36.6213Z" fill="#00B0FF"/>
</svg>
