<svg width="154" height="182" viewBox="0 0 154 182" fill="none" xmlns="http://www.w3.org/2000/svg">
<path d="M139.07 3.03816C139.325 3.14393 139.446 3.43646 139.34 3.69154C136.971 9.40464 135.449 17.9966 135.099 26.6723C134.749 35.3517 135.576 44.0317 137.845 49.9317C145.868 70.7925 152.378 96.8988 152.378 119.5C152.378 139.698 149.038 156.335 145.102 175.939C144.86 177.147 144.615 178.366 144.369 179.598C144.314 179.869 144.051 180.044 143.78 179.99C143.509 179.936 143.334 179.673 143.388 179.402C143.633 178.177 143.876 176.964 144.118 175.764C148.057 156.142 151.378 139.596 151.378 119.5C151.378 97.0622 144.908 71.0823 136.912 50.2906C134.571 44.2057 133.748 35.3679 134.1 26.632C134.453 17.8923 135.986 9.17115 138.416 3.30853C138.522 3.05344 138.815 2.9324 139.07 3.03816Z" fill="#00B0FF"/>
<path d="M53.6965 8.03425C53.9538 7.93386 54.2437 8.06102 54.3441 8.31826C56.9706 15.0487 58.3783 20.2469 58.3783 27.5C58.3783 27.7762 58.1545 28 57.8783 28C57.6022 28 57.3783 27.7762 57.3783 27.5C57.3783 20.4128 56.0119 15.3426 53.4125 8.68181C53.3121 8.42456 53.4393 8.13464 53.6965 8.03425Z" fill="#00B0FF"/>
<path d="M87.3255 9.72364C87.449 9.47665 87.3489 9.17632 87.1019 9.05282C86.8549 8.92933 86.5546 9.02944 86.4311 9.27643C84.9029 12.3328 82.1988 14.6923 79.3139 17.1221L78.9159 17.4569C76.1801 19.7575 73.3359 22.1492 71.4514 25.2397C71.3076 25.4755 71.3822 25.7832 71.618 25.9269C71.8538 26.0707 72.1614 25.9961 72.3052 25.7603C74.1021 22.8135 76.8305 20.5181 79.6014 18.1871L79.958 17.887C82.8199 15.4767 85.6908 12.9932 87.3255 9.72364Z" fill="#00B0FF"/>
<path d="M27.3507 50.3361C27.4412 50.597 27.3031 50.8819 27.0422 50.9724C22.0728 52.6965 17.6534 56.6197 14.472 61.4906C11.2914 66.3603 9.37831 72.1321 9.37831 77.5C9.37831 77.7762 9.15445 78 8.87831 78C8.60217 78 8.37831 77.7762 8.37831 77.5C8.37831 71.9084 10.3653 65.9496 13.6347 60.9438C16.9034 55.9393 21.484 51.8423 26.7144 50.0277C26.9753 49.9371 27.2602 50.0753 27.3507 50.3361Z" fill="#00B0FF"/>
<path d="M78.1461 58.9223C78.3793 58.7744 78.4484 58.4655 78.3006 58.2323C78.1527 57.9991 77.8437 57.9299 77.6105 58.0778C73.1333 60.917 70.064 64.1788 68.1201 68.048C66.1784 71.9128 65.3783 76.3463 65.3783 81.5C65.3783 81.7762 65.6022 82 65.8783 82C66.1544 82 66.3783 81.7762 66.3783 81.5C66.3783 76.4471 67.1631 72.1804 69.0137 68.4969C70.8622 64.8176 73.7929 61.6828 78.1461 58.9223Z" fill="#00B0FF"/>
<path d="M10.2827 2.20595C10.1203 1.98262 9.80755 1.93325 9.58423 2.09567C9.3609 2.25809 9.31152 2.57079 9.47394 2.79412C12.9394 7.55908 14.9294 15.6829 16.0423 24.2037C17.0346 31.8013 17.3207 39.6338 17.37 45.5069C11.3533 49.2966 7.46613 54.4763 5.28684 60.4849C-2.6018 82.2349 3.50348 102.287 25.8359 110.221C26.1272 110.325 26.4197 110.424 26.7132 110.521C24.7134 119.488 22.3284 127.939 19.9305 136.395L19.7732 136.95C17.1519 146.193 14.5248 155.456 12.3895 165.395C12.3315 165.665 12.5033 165.931 12.7733 165.989C13.0433 166.047 13.3091 165.875 13.3672 165.605C15.4956 155.698 18.1151 146.462 20.7385 137.211L20.8925 136.668C23.2824 128.24 25.6676 119.789 27.671 110.819C36.7991 113.53 46.7508 112.556 53.25 105.335C53.4347 105.129 53.418 104.813 53.2128 104.628C53.0075 104.444 52.6914 104.46 52.5067 104.666C46.3418 111.515 36.8093 112.513 27.8876 109.841C27.6339 109.757 26.4231 109.369 26.1707 109.279C4.81337 101.691 -1.36482 81.7572 6.22692 60.8258C8.2625 55.2135 12.8371 49.7048 18.374 46.0617C21.122 44.3964 24.3201 43.0182 28.0134 41.9814C28.2793 41.9068 28.4343 41.6308 28.3597 41.3649C28.2851 41.099 28.0091 40.944 27.7432 41.0186C24.189 42.0163 21.0742 43.3269 18.3642 44.9047C18.3006 39.0803 18.0001 31.4723 17.0339 24.0742C15.9199 15.5453 13.91 7.1935 10.2827 2.20595Z" fill="#00B0FF"/>
<path d="M82.3098 40.2474C82.4493 40.4858 82.3692 40.792 82.1309 40.9315C75.9846 44.5294 70.5941 48.7086 66.3776 53.4017C63.6305 56.5624 60.8861 60.5484 59.3246 64.1443C53.1703 78.3169 58.3582 96.7946 71.8783 104.628C77.133 107.433 83.9732 109.395 90.6681 110.148C102.727 111.504 113.5 105.985 119.878 101C120.378 101 120.443 101.5 120.121 101.97C116 107.985 102.749 112.513 90.5563 111.142C84.0013 110.405 77.6142 108.846 72.2786 106.096L70.3781 174.514C70.3705 174.79 70.1405 175.008 69.8644 175C69.5884 174.992 69.3708 174.762 69.3785 174.486L71.2929 105.568C57.2661 97.7493 52.1792 78.0888 58.4073 63.746C60.0646 59.9294 62.4316 56.3543 65.361 53.0394C65.2301 51.3005 64.3707 49.6698 63.1511 48.1672C61.8257 46.5341 60.1133 45.0994 58.5705 43.894C58.3529 43.724 58.3143 43.4098 58.4843 43.1922C58.6543 42.9746 58.9685 42.936 59.1861 43.106C60.7395 44.3196 62.5271 45.8115 63.9276 47.5371C65.0224 48.886 65.9042 50.4065 66.2362 52.0746C70.4451 47.5526 75.7057 43.5339 81.6257 40.0685C81.864 39.929 82.1703 40.0091 82.3098 40.2474Z" fill="#00B0FF"/>
<path d="M139.07 3.03816C139.325 3.14393 139.446 3.43646 139.34 3.69154C136.971 9.40464 135.449 17.9966 135.099 26.6723C134.749 35.3517 135.576 44.0317 137.845 49.9317C145.868 70.7925 152.378 96.8988 152.378 119.5C152.378 139.698 149.038 156.335 145.102 175.939C144.86 177.147 144.615 178.366 144.369 179.598C144.314 179.869 144.051 180.044 143.78 179.99C143.509 179.936 143.334 179.673 143.388 179.402C143.633 178.177 143.876 176.964 144.118 175.764C148.057 156.142 151.378 139.596 151.378 119.5C151.378 97.0622 144.908 71.0823 136.912 50.2906C134.571 44.2057 133.748 35.3679 134.1 26.632C134.453 17.8923 135.986 9.17115 138.416 3.30853C138.522 3.05344 138.815 2.9324 139.07 3.03816Z" stroke="#00B0FF" stroke-width="3" stroke-linecap="round" stroke-linejoin="round"/>
<path d="M53.6965 8.03425C53.9538 7.93386 54.2437 8.06102 54.3441 8.31826C56.9706 15.0487 58.3783 20.2469 58.3783 27.5C58.3783 27.7762 58.1545 28 57.8783 28C57.6022 28 57.3783 27.7762 57.3783 27.5C57.3783 20.4128 56.0119 15.3426 53.4125 8.68181C53.3121 8.42456 53.4393 8.13464 53.6965 8.03425Z" stroke="#00B0FF" stroke-width="3" stroke-linecap="round" stroke-linejoin="round"/>
<path d="M87.3255 9.72364C87.449 9.47665 87.3489 9.17632 87.1019 9.05282C86.8549 8.92933 86.5546 9.02944 86.4311 9.27643C84.9029 12.3328 82.1988 14.6923 79.3139 17.1221L78.9159 17.4569C76.1801 19.7575 73.3359 22.1492 71.4514 25.2397C71.3076 25.4755 71.3822 25.7832 71.618 25.9269C71.8538 26.0707 72.1614 25.9961 72.3052 25.7603C74.1021 22.8135 76.8305 20.5181 79.6014 18.1871L79.958 17.887C82.8199 15.4767 85.6908 12.9932 87.3255 9.72364Z" stroke="#00B0FF" stroke-width="3" stroke-linecap="round" stroke-linejoin="round"/>
<path d="M27.3507 50.3361C27.4412 50.597 27.3031 50.8819 27.0422 50.9724C22.0728 52.6965 17.6534 56.6197 14.472 61.4906C11.2914 66.3603 9.37831 72.1321 9.37831 77.5C9.37831 77.7762 9.15445 78 8.87831 78C8.60217 78 8.37831 77.7762 8.37831 77.5C8.37831 71.9084 10.3653 65.9496 13.6347 60.9438C16.9034 55.9393 21.484 51.8423 26.7144 50.0277C26.9753 49.9371 27.2602 50.0753 27.3507 50.3361Z" stroke="#00B0FF" stroke-width="3" stroke-linecap="round" stroke-linejoin="round"/>
<path d="M78.1461 58.9223C78.3793 58.7744 78.4484 58.4655 78.3006 58.2323C78.1527 57.9991 77.8437 57.9299 77.6105 58.0778C73.1333 60.917 70.064 64.1788 68.1201 68.048C66.1784 71.9128 65.3783 76.3463 65.3783 81.5C65.3783 81.7762 65.6022 82 65.8783 82C66.1544 82 66.3783 81.7762 66.3783 81.5C66.3783 76.4471 67.1631 72.1804 69.0137 68.4969C70.8622 64.8176 73.7929 61.6828 78.1461 58.9223Z" stroke="#00B0FF" stroke-width="3" stroke-linecap="round" stroke-linejoin="round"/>
<path d="M10.2827 2.20595C10.1203 1.98262 9.80755 1.93325 9.58423 2.09567C9.3609 2.25809 9.31152 2.57079 9.47394 2.79412C12.9394 7.55908 14.9294 15.6829 16.0423 24.2037C17.0346 31.8013 17.3207 39.6338 17.37 45.5069C11.3533 49.2966 7.46613 54.4763 5.28684 60.4849C-2.6018 82.2349 3.50348 102.287 25.8359 110.221C26.1272 110.325 26.4197 110.424 26.7132 110.521C24.7134 119.488 22.3284 127.939 19.9305 136.395L19.7732 136.95C17.1519 146.193 14.5248 155.456 12.3895 165.395C12.3315 165.665 12.5033 165.931 12.7733 165.989C13.0433 166.047 13.3091 165.875 13.3672 165.605C15.4956 155.698 18.1151 146.462 20.7385 137.211L20.8925 136.668C23.2824 128.24 25.6676 119.789 27.671 110.819C36.7991 113.53 46.7508 112.556 53.25 105.335C53.4347 105.129 53.418 104.813 53.2128 104.628C53.0075 104.444 52.6914 104.46 52.5067 104.666C46.3418 111.515 36.8093 112.513 27.8876 109.841C27.6339 109.757 26.4231 109.369 26.1707 109.279C4.81337 101.691 -1.36482 81.7572 6.22692 60.8258C8.2625 55.2135 12.8371 49.7048 18.374 46.0617C21.122 44.3964 24.3201 43.0182 28.0134 41.9814C28.2793 41.9068 28.4343 41.6308 28.3597 41.3649C28.2851 41.099 28.0091 40.944 27.7432 41.0186C24.189 42.0163 21.0742 43.3269 18.3642 44.9047C18.3006 39.0803 18.0001 31.4723 17.0339 24.0742C15.9199 15.5453 13.91 7.1935 10.2827 2.20595Z" stroke="#00B0FF" stroke-width="3" stroke-linecap="round" stroke-linejoin="round"/>
<path d="M82.3098 40.2474C82.4493 40.4858 82.3692 40.792 82.1309 40.9315C75.9846 44.5294 70.5941 48.7086 66.3776 53.4017C63.6305 56.5624 60.8861 60.5484 59.3246 64.1443C53.1703 78.3169 58.3582 96.7946 71.8783 104.628C77.133 107.433 83.9732 109.395 90.6681 110.148C102.727 111.504 113.5 105.985 119.878 101C120.378 101 120.443 101.5 120.121 101.97C116 107.985 102.749 112.513 90.5563 111.142C84.0013 110.405 77.6142 108.846 72.2786 106.096L70.3781 174.514C70.3705 174.79 70.1405 175.008 69.8644 175C69.5884 174.992 69.3708 174.762 69.3785 174.486L71.2929 105.568C57.2661 97.7493 52.1792 78.0888 58.4073 63.746C60.0646 59.9294 62.4316 56.3543 65.361 53.0394C65.2301 51.3005 64.3707 49.6698 63.1511 48.1672C61.8257 46.5341 60.1133 45.0994 58.5705 43.894C58.3529 43.724 58.3143 43.4098 58.4843 43.1922C58.6543 42.9746 58.9685 42.936 59.1861 43.106C60.7395 44.3196 62.5271 45.8115 63.9276 47.5371C65.0224 48.886 65.9042 50.4065 66.2362 52.0746C70.4451 47.5526 75.7057 43.5339 81.6257 40.0685C81.864 39.929 82.1703 40.0091 82.3098 40.2474Z" stroke="#00B0FF" stroke-width="3" stroke-linecap="round" stroke-linejoin="round"/>
</svg>
